<svg width="41" height="33" viewBox="0 0 41 33" fill="none" xmlns="http://www.w3.org/2000/svg">
<path d="M39.5703 11.2266C40.1432 13.1016 40.1693 14.9245 39.6484 16.6953C39.1016 18.4922 38.125 20.1328 36.7188 21.6172C35.3125 23.0755 33.5156 24.3255 31.3281 25.3672C29.1406 26.4349 26.6667 27.1641 23.9062 27.5547C22.1094 27.8151 20.3125 27.9062 18.5156 27.8281C16.7448 27.75 15.0391 27.5286 13.3984 27.1641C14.1016 27.1901 14.8047 27.1901 15.5078 27.1641C16.237 27.112 16.9661 27.0339 17.6953 26.9297C19.9089 26.6172 21.888 26.0443 23.6328 25.2109C25.4036 24.3516 26.849 23.3359 27.9688 22.1641C29.1146 20.9661 29.9089 19.651 30.3516 18.2188C30.7682 16.7865 30.7422 15.3151 30.2734 13.8047C29.8047 12.3203 28.9453 10.9792 27.6953 9.78125C26.4453 8.58333 24.9349 7.60677 23.1641 6.85156C21.4193 6.07031 19.4922 5.53646 17.3828 5.25C15.2734 4.96354 13.112 4.97656 10.8984 5.28906C9.70052 5.47135 8.55469 5.73177 7.46094 6.07031C6.39323 6.40885 5.39062 6.8125 4.45312 7.28125C3.54167 7.75 2.70833 8.28385 1.95312 8.88281C1.19792 9.45573 0.546875 10.0807 0 10.7578C0.442708 9.53385 1.13281 8.375 2.07031 7.28125C3.00781 6.16146 4.14062 5.15885 5.46875 4.27344C6.79688 3.38802 8.30729 2.63281 10 2.00781C11.6927 1.38281 13.5156 0.927083 15.4688 0.640625C18.2292 0.25 20.9245 0.236979 23.5547 0.601562C26.1849 0.940104 28.5807 1.59115 30.7422 2.55469C32.9297 3.51823 34.8047 4.74219 36.3672 6.22656C37.9036 7.71094 38.9714 9.3776 39.5703 11.2266ZM5.9375 28.6484L22.9688 18.4531L20.7812 26.8516L25.0391 32.6719L5.9375 28.6484Z" fill="white"/>
</svg>
