<svg xmlns="http://www.w3.org/2000/svg" xmlns:xlink="http://www.w3.org/1999/xlink" width="420" height="320" viewBox="0 0 420 320"><defs><style>.a{fill:none;}.b{fill:#293042;}.c{clip-path:url(#a);}.d{fill:#9e7b9b;}.e{fill:#616183;}.f{fill:#374966;}</style><clipPath id="a"><path class="a" d="M412.08,7.51H6.09V254.64h0c0,28.86,90.89,52.26,203,52.26s203-23.4,203-52.26h0Z"/></clipPath></defs><ellipse class="b" cx="209.09" cy="254.64" rx="202.99" ry="52.26"/><g class="c"><polygon class="d" points="160.61 7.51 132.63 111.96 28.17 139.95 160.61 7.51"/><polygon class="e" points="341.53 55.98 132.63 111.96 160.61 7.51 341.53 55.98"/><polygon class="e" points="28.17 139.95 76.65 320.86 132.63 111.96 28.17 139.95"/><polygon class="f" points="209.09 188.42 132.63 111.96 76.65 320.86 209.09 188.42"/><polygon class="b" points="285.55 264.88 209.09 188.42 76.65 320.86 285.55 264.88"/><polygon class="d" points="132.63 111.96 209.09 188.42 341.53 55.98 132.63 111.96"/><polygon class="e" points="285.55 264.88 209.09 188.42 341.53 55.98 285.55 264.88"/><polygon class="f" points="390 236.9 285.55 264.88 341.53 55.98 390 236.9"/><polygon class="e" points="257.56 369.33 390 236.9 285.55 264.88 257.56 369.33"/><polygon class="f" points="76.65 320.86 257.56 369.33 285.55 264.88 76.65 320.86"/></g></svg>